<?xml version="1.0" encoding="UTF-8" standalone="no"?><svg xmlns="http://www.w3.org/2000/svg" xmlns:xlink="http://www.w3.org/1999/xlink" contentScriptType="application/ecmascript" contentStyleType="text/css" height="542px" preserveAspectRatio="none" style="width:662px;height:542px;" version="1.1" viewBox="0 0 662 542" width="662px" zoomAndPan="magnify"><defs/><g><ellipse cx="196.5811" cy="129.6648" fill="#F8F8F8" rx="15.0811" ry="12.6648" style="stroke: #383838; stroke-width: 0.5;"/><text fill="#000000" font-family="Tahoma, sans-serif" font-size="12" lengthAdjust="spacingAndGlyphs" textLength="16" x="188.5811" y="133.407">Db</text><ellipse cx="472.4914" cy="76.242" fill="#F8F8F8" rx="31.9914" ry="13.242" style="stroke: #383838; stroke-width: 0.5;"/><text fill="#000000" font-family="Tahoma, sans-serif" font-size="12" lengthAdjust="spacingAndGlyphs" textLength="41" x="451.9914" y="79.9842">Deezer</text><ellipse cx="570.2904" cy="76.242" fill="#F8F8F8" rx="51.7904" ry="13.242" style="stroke: #383838; stroke-width: 0.5;"/><text fill="#000000" font-family="Tahoma, sans-serif" font-size="12" lengthAdjust="spacingAndGlyphs" textLength="69" x="535.7904" y="79.9842">Downloader</text><ellipse cx="483.4056" cy="237.242" fill="#F8F8F8" rx="33.4056" ry="13.242" style="stroke: #383838; stroke-width: 0.5;"/><text fill="#000000" font-family="Tahoma, sans-serif" font-size="12" lengthAdjust="spacingAndGlyphs" textLength="43" x="461.9056" y="240.9842">Indexer</text><ellipse cx="62.4914" cy="409.242" fill="#F8F8F8" rx="31.9914" ry="13.242" style="stroke: #383838; stroke-width: 0.5;"/><text fill="#000000" font-family="Tahoma, sans-serif" font-size="12" lengthAdjust="spacingAndGlyphs" textLength="41" x="41.9914" y="412.9842">Models</text><ellipse cx="62.5862" cy="517.7172" fill="#F8F8F8" rx="56.5862" ry="13.7172" style="stroke: #383838; stroke-width: 0.5;"/><text fill="#000000" font-family="Tahoma, sans-serif" font-size="12" lengthAdjust="spacingAndGlyphs" textLength="79" x="23.0862" y="521.4594">Models/Music</text><ellipse cx="100.4117" cy="463.242" fill="#F8F8F8" rx="53.9117" ry="13.242" style="stroke: #383838; stroke-width: 0.5;"/><text fill="#000000" font-family="Tahoma, sans-serif" font-size="12" lengthAdjust="spacingAndGlyphs" textLength="72" x="64.4117" y="466.9842">Models/User</text><ellipse cx="400.4117" cy="463.242" fill="#F8F8F8" rx="53.9117" ry="13.242" style="stroke: #383838; stroke-width: 0.5;"/><text fill="#000000" font-family="Tahoma, sans-serif" font-size="12" lengthAdjust="spacingAndGlyphs" textLength="72" x="364.4117" y="466.9842">MopConsole</text><ellipse cx="349.4903" cy="291.4981" fill="#F8F8F8" rx="55.4903" ry="13.4981" style="stroke: #383838; stroke-width: 0.5;"/><text fill="#000000" font-family="Tahoma, sans-serif" font-size="12" lengthAdjust="spacingAndGlyphs" textLength="76" x="311.4903" y="295.2402">MusicHandler</text><ellipse cx="330.7321" cy="350.4464" fill="#F8F8F8" rx="75.2321" ry="17.4464" style="stroke: #383838; stroke-width: 0.5;"/><text fill="#000000" font-family="Tahoma, sans-serif" font-size="12" lengthAdjust="spacingAndGlyphs" textLength="125" x="268.2321" y="354.1886">MusicHandlerBackEnd</text><ellipse cx="472.4117" cy="183.242" fill="#F8F8F8" rx="53.9117" ry="13.242" style="stroke: #383838; stroke-width: 0.5;"/><text fill="#000000" font-family="Tahoma, sans-serif" font-size="12" lengthAdjust="spacingAndGlyphs" textLength="72" x="436.4117" y="186.9842">MusicReader</text><ellipse cx="196.5269" cy="21.742" fill="#F8F8F8" rx="35.5269" ry="13.242" style="stroke: #383838; stroke-width: 0.5;"/><text fill="#000000" font-family="Tahoma, sans-serif" font-size="12" font-weight="bold" lengthAdjust="spacingAndGlyphs" textLength="46" x="173.5269" y="25.4842">Routes</text><ellipse cx="472.7187" cy="21.6437" fill="#F8F8F8" rx="56.2187" ry="13.6437" style="stroke: #383838; stroke-width: 0.5;"/><text fill="#000000" font-family="Tahoma, sans-serif" font-size="12" lengthAdjust="spacingAndGlyphs" textLength="78" x="433.7187" y="25.3859">Routes/Music</text><ellipse cx="68.7046" cy="291.742" fill="#F8F8F8" rx="53.2046" ry="13.242" style="stroke: #383838; stroke-width: 0.5;"/><text fill="#000000" font-family="Tahoma, sans-serif" font-size="12" lengthAdjust="spacingAndGlyphs" textLength="71" x="33.2046" y="295.4842">Routes/User</text><ellipse cx="442.299" cy="350.742" fill="#F8F8F8" rx="22.799" ry="13.242" style="stroke: #383838; stroke-width: 0.5;"/><text fill="#000000" font-family="Tahoma, sans-serif" font-size="12" lengthAdjust="spacingAndGlyphs" textLength="28" x="428.299" y="354.4842">Tags</text><ellipse cx="530.6777" cy="409.242" fill="#F8F8F8" rx="20.6777" ry="13.242" style="stroke: #383838; stroke-width: 0.5;"/><text fill="#000000" font-family="Tahoma, sans-serif" font-size="12" lengthAdjust="spacingAndGlyphs" textLength="25" x="518.1777" y="412.9842">Utils</text><!--MD5=[8fdfa73d83505b061c59e197d92bbba4]
link Db to MopConsole--><path d="M197.784,142.192 C199.805,161.636 203.5,201.857 203.5,236 C203.5,236 203.5,236 203.5,351.5 C203.5,418.115 290.243,444.9781 348.61,455.5138 " fill="none" id="Db-&gt;MopConsole" style="stroke: #000000; stroke-width: 0.5;"/><polygon fill="#000000" points="353.814,456.4238,345.6377,450.933,348.8888,455.5624,344.2594,458.8134,353.814,456.4238" style="stroke: #000000; stroke-width: 0.5;"/><!--MD5=[c5cf95bfeda0a006665006710cbf7dc5]
link Deezer to MopConsole--><path d="M482.952,88.514 C509.51,119.016 577.5,205.41 577.5,290.5 C577.5,290.5 577.5,290.5 577.5,351.5 C577.5,384.07 580.839,399.282 557.5,422 C531.672,447.1412 492.362,457.1354 459.54,460.8472 " fill="none" id="Deezer-&gt;MopConsole" style="stroke: #000000; stroke-width: 0.5;"/><polygon fill="#000000" points="454.331,461.3904,463.6973,464.4354,459.304,460.8718,462.8676,456.4785,454.331,461.3904" style="stroke: #000000; stroke-width: 0.5;"/><!--MD5=[147988793fc50fbe754d4b03e4ee4ee7]
link Deezer to MusicReader--><path d="M472.5,89.045 C472.5,107.617 472.5,143.329 472.5,164.674 " fill="none" id="Deezer-&gt;MusicReader" style="stroke: #000000; stroke-width: 0.5;"/><polygon fill="#000000" points="472.5,169.772,476.5,160.772,472.5,164.772,468.5,160.772,472.5,169.772" style="stroke: #000000; stroke-width: 0.5;"/><!--MD5=[6fd49487c35246042d1f4a67b49f26da]
link Downloader to MopConsole--><path d="M577.81,89.116 C588.593,108.173 607.5,146.63 607.5,182 C607.5,182 607.5,182 607.5,351.5 C607.5,385.552 603.646,400.184 577.5,422 C558.692,437.6934 497.422,449.0807 452.217,455.6026 " fill="none" id="Downloader-&gt;MopConsole" style="stroke: #000000; stroke-width: 0.5;"/><polygon fill="#000000" points="447.065,456.3349,456.5387,459.0273,452.0151,455.6306,455.4118,451.1071,447.065,456.3349" style="stroke: #000000; stroke-width: 0.5;"/><!--MD5=[626d6b55b869b4d6f07da96d345458ff]
link Downloader to MusicReader--><path d="M559.258,89.045 C541.462,108.112 506.806,145.244 487.107,166.349 " fill="none" id="Downloader-&gt;MusicReader" style="stroke: #000000; stroke-width: 0.5;"/><polygon fill="#000000" points="483.611,170.096,492.6758,166.245,487.0223,166.4404,486.8269,160.787,483.611,170.096" style="stroke: #000000; stroke-width: 0.5;"/><!--MD5=[7807c7d9cbda8eb5bc8e080ec700b137]
link Indexer to MopConsole--><path d="M484.635,250.314 C486.351,273.982 487.94,327.103 472.5,368 C460.62,399.468 434.513,429.111 417.218,446.4068 " fill="none" id="Indexer-&gt;MopConsole" style="stroke: #000000; stroke-width: 0.5;"/><polygon fill="#000000" points="413.456,450.1146,422.6746,446.6481,417.0179,446.6057,417.0603,440.949,413.456,450.1146" style="stroke: #000000; stroke-width: 0.5;"/><!--MD5=[32c334dd4b1ab43e5541361fe68d265d]
link Indexer to MusicHandler--><path d="M461.071,246.787 C439.418,255.271 406.399,268.208 381.893,277.809 " fill="none" id="Indexer-&gt;MusicHandler" style="stroke: #000000; stroke-width: 0.5;"/><polygon fill="#000000" points="377.111,279.682,386.95,280.1228,381.7664,277.8578,384.0313,272.6742,377.111,279.682" style="stroke: #000000; stroke-width: 0.5;"/><!--MD5=[8077f26967ea82cf383fcea110956de8]
link Indexer to Tags--><path d="M479.112,249.932 C471.776,269.884 457.002,310.062 448.638,332.808 " fill="none" id="Indexer-&gt;Tags" style="stroke: #000000; stroke-width: 0.5;"/><polygon fill="#000000" points="446.856,337.653,453.7164,330.5866,448.5817,332.9602,446.208,327.8255,446.856,337.653" style="stroke: #000000; stroke-width: 0.5;"/><!--MD5=[089c3ff822c9defe4c9ac92a73284068]
link Indexer to Utils--><path d="M488.472,250.126 C491.59,257.991 495.562,268.506 498.5,278 C510.879,318.009 521.685,366.099 527,391.075 " fill="none" id="Indexer-&gt;Utils" style="stroke: #000000; stroke-width: 0.5;"/><polygon fill="#000000" points="528.049,396.042,530.1012,386.4093,527.0149,391.1501,522.2741,388.0638,528.049,396.042" style="stroke: #000000; stroke-width: 0.5;"/><!--MD5=[aaf56899ff49333c55016a099589c411]
link Models to Models/Music--><path d="M53.6947,421.529 C48.441,429.156 42.2691,439.6291 39.5,450 C36.5191,461.1644 36.5489,464.8276 39.5,476 C41.6812,484.2576 45.9779,492.5957 50.2731,499.542 " fill="none" id="Models-&gt;Models/Music" style="stroke: #000000; stroke-width: 0.5;"/><polygon fill="#000000" points="53.2205,504.1106,51.7027,494.3794,50.51,499.9091,44.9803,498.7163,53.2205,504.1106" style="stroke: #000000; stroke-width: 0.5;"/><!--MD5=[06cdadcd5a28988bcd6c159c49c07088]
link Models to Models/User--><path d="M70.9334,421.54 C76.1729,428.71 82.9844,438.0312 88.7487,445.9192 " fill="none" id="Models-&gt;Models/User" style="stroke: #000000; stroke-width: 0.5;"/><polygon fill="#000000" points="91.8267,450.1313,89.7461,440.5047,88.8766,446.0944,83.287,445.2249,91.8267,450.1313" style="stroke: #000000; stroke-width: 0.5;"/><!--MD5=[3660904d238769411b6128304bb79824]
link Models/User to Models/Music--><path d="M91.8772,475.9131 C86.7778,482.9583 80.2398,491.9911 74.6267,499.7459 " fill="none" id="Models/User-&gt;Models/Music" style="stroke: #000000; stroke-width: 0.5;"/><polygon fill="#000000" points="71.6186,503.902,80.136,498.9568,74.5503,499.8517,73.6555,494.2661,71.6186,503.902" style="stroke: #000000; stroke-width: 0.5;"/><!--MD5=[2d3d5895e52ea0229e0bf4afd420f7f9]
link MusicHandler to MopConsole--><path d="M303.459,299.161 C283.045,304.659 260.884,314.691 248.5,333 C239.785,345.885 240.927,354.412 248.5,368 C272.787,411.575 326.523,437.4936 363.137,450.7458 " fill="none" id="MusicHandler-&gt;MopConsole" style="stroke: #000000; stroke-width: 0.5;"/><polygon fill="#000000" points="367.961,452.4547,360.8138,445.6785,363.2481,450.7847,358.1418,453.2191,367.961,452.4547" style="stroke: #000000; stroke-width: 0.5;"/><!--MD5=[40e5f599bbba5b25989c9e0dc20ed333]
link MusicHandler to MusicHandlerBackEnd--><path d="M345.283,305.15 C343.08,311.759 340.322,320.035 337.786,327.643 " fill="none" id="MusicHandler-&gt;MusicHandlerBackEnd" style="stroke: #000000; stroke-width: 0.5;"/><polygon fill="#000000" points="336.075,332.774,342.7158,325.5008,337.6561,328.0306,335.1263,322.9709,336.075,332.774" style="stroke: #000000; stroke-width: 0.5;"/><!--MD5=[e2822249cedc57ad8ef2a4f6c56e5c63]
link MusicHandler to Tags--><path d="M368.77,304.31 C384.721,314.087 407.273,327.909 423.225,337.686 " fill="none" id="MusicHandler-&gt;Tags" style="stroke: #000000; stroke-width: 0.5;"/><polygon fill="#000000" points="427.539,340.33,421.956,332.2164,423.2761,337.7171,417.7754,339.0371,427.539,340.33" style="stroke: #000000; stroke-width: 0.5;"/><!--MD5=[4ee68692543b524705eb1bc1c63db802]
link MusicHandlerBackEnd to Models--><path d="M276.91,362.798 C222.636,374.24 140.435,391.57 95.204,401.105 " fill="none" id="MusicHandlerBackEnd-&gt;Models" style="stroke: #000000; stroke-width: 0.5;"/><polygon fill="#000000" points="90.1429,402.172,99.7744,404.2296,95.0354,401.1407,98.1243,396.4016,90.1429,402.172" style="stroke: #000000; stroke-width: 0.5;"/><!--MD5=[13fe9d6c26d8e7aeba95ca754b504f28]
link MusicHandlerBackEnd to MopConsole--><path d="M341.131,368.283 C354.359,389.163 376.805,424.595 389.98,445.3934 " fill="none" id="MusicHandlerBackEnd-&gt;MopConsole" style="stroke: #000000; stroke-width: 0.5;"/><polygon fill="#000000" points="392.802,449.8485,391.3653,440.105,390.1265,445.6246,384.6069,444.3858,392.802,449.8485" style="stroke: #000000; stroke-width: 0.5;"/><!--MD5=[8e91a332a08a4fd2b95f2d23eb5f5a27]
link MusicHandlerBackEnd to Utils--><path d="M376.133,364.391 C417.062,375.954 475.447,392.448 507.404,401.475 " fill="none" id="MusicHandlerBackEnd-&gt;Utils" style="stroke: #000000; stroke-width: 0.5;"/><polygon fill="#000000" points="512.3,402.858,504.7273,396.5608,507.4885,401.498,502.5513,404.2592,512.3,402.858" style="stroke: #000000; stroke-width: 0.5;"/><!--MD5=[7b44590abf4d4c1ad23a32e0747b6de8]
link MusicReader to Indexer--><path d="M475.051,196.061 C476.495,202.886 478.324,211.531 479.911,219.032 " fill="none" id="MusicReader-&gt;Indexer" style="stroke: #000000; stroke-width: 0.5;"/><polygon fill="#000000" points="480.963,224.005,483.0146,214.3722,479.9286,219.1132,475.1877,216.0272,480.963,224.005" style="stroke: #000000; stroke-width: 0.5;"/><!--MD5=[1db159a0c685395f197a2eecceae39d7]
link MusicReader to MusicHandler--><path d="M455.056,195.389 C443.726,203.043 428.827,213.597 416.5,224 C397.496,240.038 377.482,260.426 364.332,274.373 " fill="none" id="MusicReader-&gt;MusicHandler" style="stroke: #000000; stroke-width: 0.5;"/><polygon fill="#000000" points="360.811,278.127,369.8851,274.298,364.2311,274.4797,364.0494,268.8258,360.811,278.127" style="stroke: #000000; stroke-width: 0.5;"/><!--MD5=[66a887cb3c3184ec8dc7a7c9b7e3d465]
link MusicReader to Tags--><path d="M460.445,195.751 C453.749,203.147 446.069,213.294 442.5,224 C430.201,260.896 435.054,307.355 439.119,332.103 " fill="none" id="MusicReader-&gt;Tags" style="stroke: #000000; stroke-width: 0.5;"/><polygon fill="#000000" points="440.02,337.332,442.4318,327.783,439.17,332.4048,434.5482,329.143,440.02,337.332" style="stroke: #000000; stroke-width: 0.5;"/><!--MD5=[ce2963a00f5bec7a38c1993d691a72fa]
link MusicReader to Utils--><path d="M494.052,195.067 C504.885,201.854 517.052,211.626 523.5,224 C552.244,279.166 541.335,356.778 534.447,390.839 " fill="none" id="MusicReader-&gt;Utils" style="stroke: #000000; stroke-width: 0.5;"/><polygon fill="#000000" points="533.383,395.922,539.1422,387.9326,534.4075,391.0281,531.312,386.2934,533.383,395.922" style="stroke: #000000; stroke-width: 0.5;"/><!--MD5=[9b0bc6e7ced2da8e03b5247ee366e641]
link <b>Routes</b> to Db--><path d="M196.5,34.66 C196.5,53.609 196.5,90.233 196.5,111.695 " fill="none" id="&lt;b&gt;Routes&lt;/b&gt;-&gt;Db" style="stroke: #000000; stroke-width: 1.0;"/><polygon fill="#000000" points="196.5,116.805,200.5,107.805,196.5,111.805,192.5,107.805,196.5,116.805" style="stroke: #000000; stroke-width: 1.0;"/><!--MD5=[c11702f21146e419a7c1a39c346866b6]
link <b>Routes</b> to MopConsole--><path d="M186.281,33.954 C170.88,52.445 143.5,90.642 143.5,128.5 C143.5,128.5 143.5,128.5 143.5,238 C143.5,326.144 148.752,366.836 217.5,422 C237.384,437.9553 301.555,449.3707 348.307,455.8225 " fill="none" id="&lt;b&gt;Routes&lt;/b&gt;-&gt;MopConsole" style="stroke: #000000; stroke-width: 1.0;"/><polygon fill="#000000" points="353.345,456.5079,344.9666,451.3307,348.3907,455.8336,343.8878,459.2577,353.345,456.5079" style="stroke: #000000; stroke-width: 1.0;"/><!--MD5=[041e23f6bbcfee62824d13a91ee982e9]
link <b>Routes</b> to MusicReader--><path d="M214.609,32.965 C262.785,60.806 394.115,136.701 448.461,168.108 " fill="none" id="&lt;b&gt;Routes&lt;/b&gt;-&gt;MusicReader" style="stroke: #000000; stroke-width: 1.0;"/><polygon fill="#000000" points="452.858,170.649,447.069,162.6811,448.5295,168.1462,443.0644,169.6067,452.858,170.649" style="stroke: #000000; stroke-width: 1.0;"/><!--MD5=[b5765270f9224afbf6727a6a4e4dff93]
link <b>Routes</b> to Routes/Music--><path d="M232.078,21.5 C291.758,21.5 351.438,21.5 411.118,21.5 " fill="none" id="&lt;b&gt;Routes&lt;/b&gt;-&gt;Routes/Music" style="stroke: #000000; stroke-width: 1.0;"/><polygon fill="#000000" points="416.151,21.5,407.151,17.5,411.151,21.5,407.151,25.5,416.151,21.5" style="stroke: #000000; stroke-width: 1.0;"/><!--MD5=[c696653a2c17480c2491dba7011ef143]
link <b>Routes</b> to Routes/User--><path d="M175.504,32.006 C144.862,47.484 91.5,81.227 91.5,128.5 C91.5,128.5 91.5,128.5 91.5,184 C91.5,216.086 81.4022,252.409 74.5881,273.267 " fill="none" id="&lt;b&gt;Routes&lt;/b&gt;-&gt;Routes/User" style="stroke: #000000; stroke-width: 1.0;"/><polygon fill="#000000" points="72.9346,278.225,79.5779,270.954,74.5174,273.4821,71.9893,268.4216,72.9346,278.225" style="stroke: #000000; stroke-width: 1.0;"/><!--MD5=[ba3330dd4341a42d54d3a6ddb5103b4f]
link Routes/Music to Deezer--><path d="M472.5,35.209 C472.5,41.883 472.5,50.166 472.5,57.444 " fill="none" id="Routes/Music-&gt;Deezer" style="stroke: #000000; stroke-width: 0.5;"/><polygon fill="#000000" points="472.5,62.77,476.5,53.77,472.5,57.77,468.5,53.77,472.5,62.77" style="stroke: #000000; stroke-width: 0.5;"/><!--MD5=[a049d23b4b337c025bd5fbb29132e84b]
link Routes/Music to Downloader--><path d="M494.249,34.151 C509.274,42.2 529.31,52.934 545.073,61.378 " fill="none" id="Routes/Music-&gt;Downloader" style="stroke: #000000; stroke-width: 0.5;"/><polygon fill="#000000" points="549.818,63.92,543.7731,56.1444,545.4105,61.5591,539.9958,63.1965,549.818,63.92" style="stroke: #000000; stroke-width: 0.5;"/><!--MD5=[ceba7748bd8a4d827a822cb63abf4440]
link Routes/Music to Models--><path d="M417.068,23.68 C346.465,28.468 233.5,48.612 233.5,128.5 C233.5,128.5 233.5,128.5 233.5,184 C233.5,282.111 128.575,363.962 83.1053,394.827 " fill="none" id="Routes/Music-&gt;Models" style="stroke: #000000; stroke-width: 0.5;"/><polygon fill="#000000" points="78.8962,397.653,88.5976,395.9551,83.0468,394.865,84.1369,389.3142,78.8962,397.653" style="stroke: #000000; stroke-width: 0.5;"/><!--MD5=[965c7e28970e8efc26b6a8800fd6dcae]
link Routes/Music to MopConsole--><path d="M519.035,29.072 C559.589,35.741 614.237,47.314 629.5,63 C650.327,84.404 644.5,98.635 644.5,128.5 C644.5,128.5 644.5,128.5 644.5,351.5 C644.5,432.6752 531.051,454.525 458.869,460.2118 " fill="none" id="Routes/Music-&gt;MopConsole" style="stroke: #000000; stroke-width: 0.5;"/><polygon fill="#000000" points="453.745,460.5939,463.0182,463.9116,458.7311,460.221,462.4217,455.9339,453.745,460.5939" style="stroke: #000000; stroke-width: 0.5;"/><!--MD5=[eaed01417685fc4860e8021367ea7264]
link Routes/User to Models--><path d="M67.8579,304.861 C66.7843,325.528 64.6222,367.147 63.3982,390.709 " fill="none" id="Routes/User-&gt;Models" style="stroke: #000000; stroke-width: 0.5;"/><polygon fill="#000000" points="63.1375,395.728,67.6001,386.9482,63.3975,390.7348,59.6109,386.5322,63.1375,395.728" style="stroke: #000000; stroke-width: 0.5;"/><!--MD5=[85df492481c4158f99a97e3378980ce8]
link Routes/User to MopConsole--><path d="M73.4158,304.571 C84.7719,330.781 115.505,392.882 162.5,422 C192.292,440.4597 284.788,451.8751 345.31,457.5697 " fill="none" id="Routes/User-&gt;MopConsole" style="stroke: #000000; stroke-width: 0.5;"/><polygon fill="#000000" points="350.336,458.0364,341.7436,453.2229,345.3573,457.575,341.0053,461.1887,350.336,458.0364" style="stroke: #000000; stroke-width: 0.5;"/><!--MD5=[bd01b6775289bb10b5a60f1bb823f519]
link Tags to MopConsole--><path d="M438.005,363.325 C430.529,382.995 415.514,422.5 406.923,445.1022 " fill="none" id="Tags-&gt;MopConsole" style="stroke: #000000; stroke-width: 0.5;"/><polygon fill="#000000" points="405.09,449.9246,412.0265,442.9329,406.8664,445.2508,404.5485,440.0906,405.09,449.9246" style="stroke: #000000; stroke-width: 0.5;"/><script type="text/plantuml"><![CDATA[MD5=[7839cf9a555e16883e3f7881f4d52575]
@startuml

scale max 1920 width
top to bottom direction

skinparam nodesep 14
skinparam ranksep 28
skinparam monochrome true
skinparam shadowing false
skinparam defaultFontName Tahoma
skinparam defaultFontSize 12
skinparam roundCorner 6
skinparam dpi 150
skinparam arrowColor black
skinparam arrowThickness 0.5
skinparam packageTitleAlignment left

skinparam usecase {
  borderThickness 0.5
}

skinparam rectangle {
  borderThickness 0.5
}

skinparam component {
  borderThickness 1
}


(Db)
(Deezer)
(Downloader)
(Indexer)
(Models)
(Models/Music)
(Models/User)
(MopConsole)
(MusicHandler)
(MusicHandlerBackEnd)
(MusicReader)
(<b>Routes</b>)
(Routes/Music)
(Routes/User)
(Tags)
(Utils)


(Db) --> (MopConsole)
(Deezer) --> (MopConsole)
(Deezer) ---> (MusicReader)
(Downloader) --> (MopConsole)
(Downloader) ---> (MusicReader)
(Indexer) ---> (MopConsole)
(Indexer) --> (MusicHandler)
(Indexer) --> (Tags)
(Indexer) --> (Utils)
(Models) --> (Models/Music)
(Models) --> (Models/User)
(Models/User) --> (Models/Music)
(MusicHandler) ---> (MopConsole)
(MusicHandler) --> (MusicHandlerBackEnd)
(MusicHandler) --> (Tags)
(MusicHandlerBackEnd) --> (Models)
(MusicHandlerBackEnd) ---> (MopConsole)
(MusicHandlerBackEnd) --> (Utils)
(MusicReader) --> (Indexer)
(MusicReader) --> (MusicHandler)
(MusicReader) --> (Tags)
(MusicReader) --> (Utils)
(<b>Routes</b>) --[thickness=1]> (Db)
(<b>Routes</b>) --[thickness=1]> (MopConsole)
(<b>Routes</b>) ---[thickness=1]> (MusicReader)
(<b>Routes</b>) -[thickness=1]> (Routes/Music)
(<b>Routes</b>) -[thickness=1]> (Routes/User)
(Routes/Music) --> (Deezer)
(Routes/Music) --> (Downloader)
(Routes/Music) ---> (Models)
(Routes/Music) --> (MopConsole)
(Routes/User) ---> (Models)
(Routes/User) --> (MopConsole)
(Tags) ---> (MopConsole)

@enduml


' View and edit on https://arkit.pro
]]></script></g></svg>